<svg  version = "1.1" xmlns = "http://www.w3.org/2000/svg">
<line x1="400" y1="300" x2="500" y2="700" style="stroke:rgb(0, 0, 0);stroke-width:2" />
<line x1="500" y1="700" x2="900" y2="700" style="stroke:rgb(0, 0, 0);stroke-width:2" />
<line x1="900" y1="700" x2="1000" y2="1100" style="stroke:rgb(0, 0, 0);stroke-width:2" />
<line x1="1000" y1="1100" x2="1200" y2="1400" style="stroke:rgb(0, 0, 0);stroke-width:2" />
<line x1="1200" y1="1400" x2="1800" y2="1400" style="stroke:rgb(0, 0, 0);stroke-width:2" />
<line x1="900" y1="700" x2="1300" y2="700" style="stroke:rgb(0, 0, 0);stroke-width:2" />
<line x1="1300" y1="700" x2="1800" y2="700" style="stroke:rgb(0, 0, 0);stroke-width:2" />
<line x1="1800" y1="700" x2="1800" y2="400" style="stroke:rgb(0, 0, 0);stroke-width:2" />
<line x1="1800" y1="400" x2="1500" y2="200" style="stroke:rgb(0, 0, 0);stroke-width:2" />
<circle cx="400" cy="300" r="6" stroke="black" stroke-width="3" fill="red" />
<circle cx="500" cy="700" r="6" stroke="black" stroke-width="3" fill="red" />
<circle cx="900" cy="700" r="6" stroke="black" stroke-width="3" fill="red" />
<circle cx="1000" cy="1100" r="6" stroke="black" stroke-width="3" fill="red" />
<circle cx="1200" cy="1400" r="6" stroke="black" stroke-width="3" fill="red" />
<circle cx="1800" cy="1400" r="6" stroke="black" stroke-width="3" fill="red" />
<circle cx="1300" cy="700" r="6" stroke="black" stroke-width="3" fill="red" />
<circle cx="1800" cy="700" r="6" stroke="black" stroke-width="3" fill="red" />
<circle cx="1800" cy="400" r="6" stroke="black" stroke-width="3" fill="red" />
<circle cx="1500" cy="200" r="6" stroke="black" stroke-width="3" fill="red" />
<circle cx="1" cy="1" r="4" stroke="black" stroke-width="3" fill="blue" />
<circle cx="1" cy="1" r="4" stroke="black" stroke-width="3" fill="blue" />
</svg>